<mxfile host="app.diagrams.net" agent="Mozilla/5.0 (Macintosh; Intel Mac OS X 10_15_7) AppleWebKit/537.36 (KHTML, like Gecko) Chrome/130.0.0.0 Safari/537.36" version="24.8.6" pages="6">
  <diagram name="Page-1" id="-H_mtQnk-PTXWXPvYvuk">
    <mxGraphModel dx="1026" dy="596" grid="1" gridSize="10" guides="1" tooltips="1" connect="1" arrows="1" fold="1" page="1" pageScale="1" pageWidth="1169" pageHeight="827" math="0" shadow="0">
      <root>
        <mxCell id="0" />
        <mxCell id="1" parent="0" />
        <mxCell id="zA23MoTUsTF4_91t8viU-2" value="MongoDB" style="shape=cylinder3;whiteSpace=wrap;html=1;boundedLbl=1;backgroundOutline=1;size=15;" parent="1" vertex="1">
          <mxGeometry x="560" y="280" width="60" height="80" as="geometry" />
        </mxCell>
        <mxCell id="zA23MoTUsTF4_91t8viU-3" value="pymongo-api" style="rounded=1;whiteSpace=wrap;html=1;" parent="1" vertex="1">
          <mxGeometry x="360" y="290" width="120" height="60" as="geometry" />
        </mxCell>
        <mxCell id="zA23MoTUsTF4_91t8viU-4" style="edgeStyle=orthogonalEdgeStyle;rounded=0;orthogonalLoop=1;jettySize=auto;html=1;exitX=1;exitY=0.5;exitDx=0;exitDy=0;entryX=0;entryY=0.5;entryDx=0;entryDy=0;entryPerimeter=0;" parent="1" source="zA23MoTUsTF4_91t8viU-3" target="zA23MoTUsTF4_91t8viU-2" edge="1">
          <mxGeometry relative="1" as="geometry" />
        </mxCell>
      </root>
    </mxGraphModel>
  </diagram>
  <diagram id="U784_ij-aJZ7tw-NRi7e" name="Sharding">
    <mxGraphModel dx="2522" dy="1407" grid="1" gridSize="10" guides="1" tooltips="1" connect="1" arrows="1" fold="1" page="1" pageScale="1" pageWidth="827" pageHeight="1169" math="0" shadow="0">
      <root>
        <mxCell id="0" />
        <mxCell id="1" parent="0" />
        <mxCell id="-tSJ1TrhbyKjm5DQ6id2-1" value="&lt;b&gt;MongoDB&lt;/b&gt;&lt;div&gt;shard1&lt;/div&gt;" style="shape=cylinder3;whiteSpace=wrap;html=1;boundedLbl=1;backgroundOutline=1;size=15;" vertex="1" parent="1">
          <mxGeometry x="220" y="300" width="60" height="80" as="geometry" />
        </mxCell>
        <mxCell id="-tSJ1TrhbyKjm5DQ6id2-7" style="edgeStyle=orthogonalEdgeStyle;rounded=0;orthogonalLoop=1;jettySize=auto;html=1;exitX=0.5;exitY=1;exitDx=0;exitDy=0;entryX=0.5;entryY=0;entryDx=0;entryDy=0;" edge="1" parent="1" source="-tSJ1TrhbyKjm5DQ6id2-2" target="-tSJ1TrhbyKjm5DQ6id2-4">
          <mxGeometry relative="1" as="geometry" />
        </mxCell>
        <mxCell id="-tSJ1TrhbyKjm5DQ6id2-2" value="&lt;b&gt;Приложение&lt;/b&gt;&lt;br&gt;pymongo-api" style="rounded=1;whiteSpace=wrap;html=1;" vertex="1" parent="1">
          <mxGeometry x="310" y="40" width="120" height="60" as="geometry" />
        </mxCell>
        <mxCell id="-tSJ1TrhbyKjm5DQ6id2-4" value="&lt;div&gt;&lt;b&gt;MongoDB роутер&lt;/b&gt;&lt;/div&gt;mongos_router" style="rounded=1;whiteSpace=wrap;html=1;" vertex="1" parent="1">
          <mxGeometry x="310" y="160" width="120" height="60" as="geometry" />
        </mxCell>
        <mxCell id="-tSJ1TrhbyKjm5DQ6id2-10" style="edgeStyle=orthogonalEdgeStyle;rounded=0;orthogonalLoop=1;jettySize=auto;html=1;exitX=0;exitY=0.5;exitDx=0;exitDy=0;" edge="1" parent="1" source="-tSJ1TrhbyKjm5DQ6id2-5" target="-tSJ1TrhbyKjm5DQ6id2-4">
          <mxGeometry relative="1" as="geometry" />
        </mxCell>
        <mxCell id="-tSJ1TrhbyKjm5DQ6id2-5" value="&lt;div&gt;&lt;b&gt;&amp;nbsp;Сервер конфигурации&lt;/b&gt;&lt;/div&gt;configSrv" style="rounded=1;whiteSpace=wrap;html=1;" vertex="1" parent="1">
          <mxGeometry x="560" y="160" width="120" height="60" as="geometry" />
        </mxCell>
        <mxCell id="-tSJ1TrhbyKjm5DQ6id2-6" value="&lt;b&gt;MongoDB&lt;/b&gt;&lt;div&gt;shard2&lt;/div&gt;" style="shape=cylinder3;whiteSpace=wrap;html=1;boundedLbl=1;backgroundOutline=1;size=15;" vertex="1" parent="1">
          <mxGeometry x="450" y="300" width="60" height="80" as="geometry" />
        </mxCell>
        <mxCell id="-tSJ1TrhbyKjm5DQ6id2-8" style="edgeStyle=orthogonalEdgeStyle;rounded=0;orthogonalLoop=1;jettySize=auto;html=1;exitX=0.5;exitY=1;exitDx=0;exitDy=0;entryX=0.5;entryY=0;entryDx=0;entryDy=0;entryPerimeter=0;" edge="1" parent="1" source="-tSJ1TrhbyKjm5DQ6id2-4" target="-tSJ1TrhbyKjm5DQ6id2-1">
          <mxGeometry relative="1" as="geometry" />
        </mxCell>
        <mxCell id="-tSJ1TrhbyKjm5DQ6id2-9" style="edgeStyle=orthogonalEdgeStyle;rounded=0;orthogonalLoop=1;jettySize=auto;html=1;entryX=0.5;entryY=0;entryDx=0;entryDy=0;entryPerimeter=0;" edge="1" parent="1" source="-tSJ1TrhbyKjm5DQ6id2-4" target="-tSJ1TrhbyKjm5DQ6id2-6">
          <mxGeometry relative="1" as="geometry">
            <Array as="points">
              <mxPoint x="370" y="260" />
              <mxPoint x="480" y="260" />
            </Array>
          </mxGeometry>
        </mxCell>
      </root>
    </mxGraphModel>
  </diagram>
  <diagram name="Sharding+Repl" id="B2uGA-MBTVuMFjdHza9R">
    <mxGraphModel grid="1" page="1" gridSize="10" guides="1" tooltips="1" connect="1" arrows="1" fold="1" pageScale="1" pageWidth="827" pageHeight="1169" math="0" shadow="0">
      <root>
        <mxCell id="Lri1q5noMOXwTe48mjHK-0" />
        <mxCell id="Lri1q5noMOXwTe48mjHK-1" parent="Lri1q5noMOXwTe48mjHK-0" />
        <mxCell id="Yzil1d1H1il6biU19NG1-0" value="&lt;b&gt;MongoDB&lt;/b&gt;&lt;div&gt;shard1-secondary2&lt;/div&gt;" style="shape=cylinder3;whiteSpace=wrap;html=1;boundedLbl=1;backgroundOutline=1;size=15;" vertex="1" parent="Lri1q5noMOXwTe48mjHK-1">
          <mxGeometry x="200" y="430" width="90" height="90" as="geometry" />
        </mxCell>
        <mxCell id="ic7a1N5hwV1vOMr7oNpF-0" value="&lt;b&gt;MongoDB&lt;/b&gt;&lt;div&gt;shard1-secondary1&lt;/div&gt;" style="shape=cylinder3;whiteSpace=wrap;html=1;boundedLbl=1;backgroundOutline=1;size=15;" vertex="1" parent="Lri1q5noMOXwTe48mjHK-1">
          <mxGeometry x="200" y="360" width="90" height="90" as="geometry" />
        </mxCell>
        <mxCell id="Lri1q5noMOXwTe48mjHK-2" value="&lt;b&gt;MongoDB&lt;/b&gt;&lt;div&gt;shard1&lt;/div&gt;" style="shape=cylinder3;whiteSpace=wrap;html=1;boundedLbl=1;backgroundOutline=1;size=15;" vertex="1" parent="Lri1q5noMOXwTe48mjHK-1">
          <mxGeometry x="200" y="300" width="90" height="80" as="geometry" />
        </mxCell>
        <mxCell id="Lri1q5noMOXwTe48mjHK-3" style="edgeStyle=orthogonalEdgeStyle;rounded=0;orthogonalLoop=1;jettySize=auto;html=1;exitX=0.5;exitY=1;exitDx=0;exitDy=0;entryX=0.5;entryY=0;entryDx=0;entryDy=0;" edge="1" parent="Lri1q5noMOXwTe48mjHK-1" source="Lri1q5noMOXwTe48mjHK-4" target="Lri1q5noMOXwTe48mjHK-5">
          <mxGeometry relative="1" as="geometry" />
        </mxCell>
        <mxCell id="Lri1q5noMOXwTe48mjHK-4" value="&lt;b&gt;Приложение&lt;/b&gt;&lt;br&gt;pymongo-api" style="rounded=1;whiteSpace=wrap;html=1;" vertex="1" parent="Lri1q5noMOXwTe48mjHK-1">
          <mxGeometry x="310" y="40" width="120" height="60" as="geometry" />
        </mxCell>
        <mxCell id="Lri1q5noMOXwTe48mjHK-5" value="&lt;div&gt;&lt;b&gt;MongoDB роутер&lt;/b&gt;&lt;/div&gt;mongos_router" style="rounded=1;whiteSpace=wrap;html=1;" vertex="1" parent="Lri1q5noMOXwTe48mjHK-1">
          <mxGeometry x="310" y="160" width="120" height="60" as="geometry" />
        </mxCell>
        <mxCell id="Lri1q5noMOXwTe48mjHK-6" style="edgeStyle=orthogonalEdgeStyle;rounded=0;orthogonalLoop=1;jettySize=auto;html=1;exitX=0;exitY=0.5;exitDx=0;exitDy=0;" edge="1" parent="Lri1q5noMOXwTe48mjHK-1" source="Lri1q5noMOXwTe48mjHK-7" target="Lri1q5noMOXwTe48mjHK-5">
          <mxGeometry relative="1" as="geometry" />
        </mxCell>
        <mxCell id="Lri1q5noMOXwTe48mjHK-7" value="&lt;div&gt;&lt;b&gt;&amp;nbsp;Сервер конфигурации&lt;/b&gt;&lt;/div&gt;configSrv" style="rounded=1;whiteSpace=wrap;html=1;" vertex="1" parent="Lri1q5noMOXwTe48mjHK-1">
          <mxGeometry x="560" y="160" width="120" height="60" as="geometry" />
        </mxCell>
        <mxCell id="Lri1q5noMOXwTe48mjHK-9" style="edgeStyle=orthogonalEdgeStyle;rounded=0;orthogonalLoop=1;jettySize=auto;html=1;exitX=0.5;exitY=1;exitDx=0;exitDy=0;entryX=0.5;entryY=0;entryDx=0;entryDy=0;entryPerimeter=0;" edge="1" parent="Lri1q5noMOXwTe48mjHK-1" source="Lri1q5noMOXwTe48mjHK-5" target="Lri1q5noMOXwTe48mjHK-2">
          <mxGeometry relative="1" as="geometry" />
        </mxCell>
        <mxCell id="Lri1q5noMOXwTe48mjHK-10" style="edgeStyle=orthogonalEdgeStyle;rounded=0;orthogonalLoop=1;jettySize=auto;html=1;entryX=0.5;entryY=0;entryDx=0;entryDy=0;entryPerimeter=0;" edge="1" parent="Lri1q5noMOXwTe48mjHK-1" source="Lri1q5noMOXwTe48mjHK-5">
          <mxGeometry relative="1" as="geometry">
            <Array as="points">
              <mxPoint x="370" y="260" />
              <mxPoint x="480" y="260" />
            </Array>
            <mxPoint x="480" y="300" as="targetPoint" />
          </mxGeometry>
        </mxCell>
        <mxCell id="Yzil1d1H1il6biU19NG1-2" value="&lt;b&gt;MongoDB&lt;/b&gt;&lt;div&gt;shard2-secondary2&lt;/div&gt;" style="shape=cylinder3;whiteSpace=wrap;html=1;boundedLbl=1;backgroundOutline=1;size=15;" vertex="1" parent="Lri1q5noMOXwTe48mjHK-1">
          <mxGeometry x="440" y="430" width="90" height="90" as="geometry" />
        </mxCell>
        <mxCell id="Yzil1d1H1il6biU19NG1-3" value="&lt;b&gt;MongoDB&lt;/b&gt;&lt;div&gt;shard2-secondary1&lt;/div&gt;" style="shape=cylinder3;whiteSpace=wrap;html=1;boundedLbl=1;backgroundOutline=1;size=15;" vertex="1" parent="Lri1q5noMOXwTe48mjHK-1">
          <mxGeometry x="440" y="360" width="90" height="90" as="geometry" />
        </mxCell>
        <mxCell id="Yzil1d1H1il6biU19NG1-4" value="&lt;b&gt;MongoDB&lt;/b&gt;&lt;div&gt;shard2&lt;/div&gt;" style="shape=cylinder3;whiteSpace=wrap;html=1;boundedLbl=1;backgroundOutline=1;size=15;" vertex="1" parent="Lri1q5noMOXwTe48mjHK-1">
          <mxGeometry x="440" y="300" width="90" height="80" as="geometry" />
        </mxCell>
      </root>
    </mxGraphModel>
  </diagram>
  <diagram name="Sharding+Repl+Cache" id="K09xfL7D1OvWVFMjcOQ0">
    <mxGraphModel grid="1" page="1" gridSize="10" guides="1" tooltips="1" connect="1" arrows="1" fold="1" pageScale="1" pageWidth="827" pageHeight="1169" math="0" shadow="0">
      <root>
        <mxCell id="9mX7AOVtK2bEOvSFMjaS-0" />
        <mxCell id="9mX7AOVtK2bEOvSFMjaS-1" parent="9mX7AOVtK2bEOvSFMjaS-0" />
        <mxCell id="9mX7AOVtK2bEOvSFMjaS-2" value="&lt;b&gt;MongoDB&lt;/b&gt;&lt;div&gt;shard1-secondary2&lt;/div&gt;" style="shape=cylinder3;whiteSpace=wrap;html=1;boundedLbl=1;backgroundOutline=1;size=15;" parent="9mX7AOVtK2bEOvSFMjaS-1" vertex="1">
          <mxGeometry x="200" y="510" width="90" height="90" as="geometry" />
        </mxCell>
        <mxCell id="9mX7AOVtK2bEOvSFMjaS-3" value="&lt;b&gt;MongoDB&lt;/b&gt;&lt;div&gt;shard1-secondary1&lt;/div&gt;" style="shape=cylinder3;whiteSpace=wrap;html=1;boundedLbl=1;backgroundOutline=1;size=15;" parent="9mX7AOVtK2bEOvSFMjaS-1" vertex="1">
          <mxGeometry x="200" y="440" width="90" height="90" as="geometry" />
        </mxCell>
        <mxCell id="9mX7AOVtK2bEOvSFMjaS-4" value="&lt;b&gt;MongoDB&lt;/b&gt;&lt;div&gt;shard1&lt;/div&gt;" style="shape=cylinder3;whiteSpace=wrap;html=1;boundedLbl=1;backgroundOutline=1;size=15;" parent="9mX7AOVtK2bEOvSFMjaS-1" vertex="1">
          <mxGeometry x="200" y="380" width="90" height="80" as="geometry" />
        </mxCell>
        <mxCell id="6IYYpOi1UFkEVQ_QVV1e-1" style="edgeStyle=orthogonalEdgeStyle;rounded=0;orthogonalLoop=1;jettySize=auto;html=1;exitX=0.5;exitY=1;exitDx=0;exitDy=0;entryX=0.5;entryY=0;entryDx=0;entryDy=0;" edge="1" parent="9mX7AOVtK2bEOvSFMjaS-1" source="9mX7AOVtK2bEOvSFMjaS-6" target="6IYYpOi1UFkEVQ_QVV1e-0">
          <mxGeometry relative="1" as="geometry" />
        </mxCell>
        <mxCell id="9mX7AOVtK2bEOvSFMjaS-6" value="&lt;b&gt;Приложение&lt;/b&gt;&lt;br&gt;pymongo-api" style="rounded=1;whiteSpace=wrap;html=1;" parent="9mX7AOVtK2bEOvSFMjaS-1" vertex="1">
          <mxGeometry x="310" y="40" width="120" height="60" as="geometry" />
        </mxCell>
        <mxCell id="9mX7AOVtK2bEOvSFMjaS-7" value="&lt;div&gt;&lt;b&gt;MongoDB роутер&lt;/b&gt;&lt;/div&gt;mongos_router" style="rounded=1;whiteSpace=wrap;html=1;" parent="9mX7AOVtK2bEOvSFMjaS-1" vertex="1">
          <mxGeometry x="310" y="240" width="120" height="60" as="geometry" />
        </mxCell>
        <mxCell id="9mX7AOVtK2bEOvSFMjaS-8" style="edgeStyle=orthogonalEdgeStyle;rounded=0;orthogonalLoop=1;jettySize=auto;html=1;exitX=0;exitY=0.5;exitDx=0;exitDy=0;" parent="9mX7AOVtK2bEOvSFMjaS-1" source="9mX7AOVtK2bEOvSFMjaS-9" target="9mX7AOVtK2bEOvSFMjaS-7" edge="1">
          <mxGeometry relative="1" as="geometry" />
        </mxCell>
        <mxCell id="9mX7AOVtK2bEOvSFMjaS-9" value="&lt;div&gt;&lt;b&gt;&amp;nbsp;Сервер конфигурации&lt;/b&gt;&lt;/div&gt;configSrv" style="rounded=1;whiteSpace=wrap;html=1;" parent="9mX7AOVtK2bEOvSFMjaS-1" vertex="1">
          <mxGeometry x="560" y="240" width="120" height="60" as="geometry" />
        </mxCell>
        <mxCell id="9mX7AOVtK2bEOvSFMjaS-10" style="edgeStyle=orthogonalEdgeStyle;rounded=0;orthogonalLoop=1;jettySize=auto;html=1;exitX=0.5;exitY=1;exitDx=0;exitDy=0;entryX=0.5;entryY=0;entryDx=0;entryDy=0;entryPerimeter=0;" parent="9mX7AOVtK2bEOvSFMjaS-1" source="9mX7AOVtK2bEOvSFMjaS-7" target="9mX7AOVtK2bEOvSFMjaS-4" edge="1">
          <mxGeometry relative="1" as="geometry" />
        </mxCell>
        <mxCell id="9mX7AOVtK2bEOvSFMjaS-11" style="edgeStyle=orthogonalEdgeStyle;rounded=0;orthogonalLoop=1;jettySize=auto;html=1;entryX=0.5;entryY=0;entryDx=0;entryDy=0;entryPerimeter=0;" parent="9mX7AOVtK2bEOvSFMjaS-1" source="9mX7AOVtK2bEOvSFMjaS-7" edge="1">
          <mxGeometry relative="1" as="geometry">
            <Array as="points">
              <mxPoint x="370" y="340" />
              <mxPoint x="480" y="340" />
            </Array>
            <mxPoint x="480" y="380" as="targetPoint" />
          </mxGeometry>
        </mxCell>
        <mxCell id="9mX7AOVtK2bEOvSFMjaS-12" value="&lt;b&gt;MongoDB&lt;/b&gt;&lt;div&gt;shard2-secondary2&lt;/div&gt;" style="shape=cylinder3;whiteSpace=wrap;html=1;boundedLbl=1;backgroundOutline=1;size=15;" parent="9mX7AOVtK2bEOvSFMjaS-1" vertex="1">
          <mxGeometry x="440" y="510" width="90" height="90" as="geometry" />
        </mxCell>
        <mxCell id="9mX7AOVtK2bEOvSFMjaS-13" value="&lt;b&gt;MongoDB&lt;/b&gt;&lt;div&gt;shard2-secondary1&lt;/div&gt;" style="shape=cylinder3;whiteSpace=wrap;html=1;boundedLbl=1;backgroundOutline=1;size=15;" parent="9mX7AOVtK2bEOvSFMjaS-1" vertex="1">
          <mxGeometry x="440" y="440" width="90" height="90" as="geometry" />
        </mxCell>
        <mxCell id="9mX7AOVtK2bEOvSFMjaS-14" value="&lt;b&gt;MongoDB&lt;/b&gt;&lt;div&gt;shard2&lt;/div&gt;" style="shape=cylinder3;whiteSpace=wrap;html=1;boundedLbl=1;backgroundOutline=1;size=15;" parent="9mX7AOVtK2bEOvSFMjaS-1" vertex="1">
          <mxGeometry x="440" y="380" width="90" height="80" as="geometry" />
        </mxCell>
        <mxCell id="6IYYpOi1UFkEVQ_QVV1e-2" style="edgeStyle=orthogonalEdgeStyle;rounded=0;orthogonalLoop=1;jettySize=auto;html=1;exitX=0.5;exitY=1;exitDx=0;exitDy=0;entryX=0.5;entryY=0;entryDx=0;entryDy=0;" edge="1" parent="9mX7AOVtK2bEOvSFMjaS-1" source="6IYYpOi1UFkEVQ_QVV1e-0" target="9mX7AOVtK2bEOvSFMjaS-7">
          <mxGeometry relative="1" as="geometry" />
        </mxCell>
        <mxCell id="6IYYpOi1UFkEVQ_QVV1e-0" value="&lt;div&gt;&lt;span style=&quot;background-color: initial;&quot;&gt;&lt;b&gt;Reddis кэш&lt;/b&gt;&lt;/span&gt;&lt;/div&gt;&lt;div&gt;reddis&lt;/div&gt;" style="rounded=1;whiteSpace=wrap;html=1;" vertex="1" parent="9mX7AOVtK2bEOvSFMjaS-1">
          <mxGeometry x="310" y="140" width="120" height="60" as="geometry" />
        </mxCell>
      </root>
    </mxGraphModel>
  </diagram>
  <diagram name="ApiGateway" id="DkrYJ3C22qR_s8HaPGPx">
    <mxGraphModel grid="1" page="1" gridSize="10" guides="1" tooltips="1" connect="1" arrows="1" fold="1" pageScale="1" pageWidth="827" pageHeight="1169" math="0" shadow="0">
      <root>
        <mxCell id="fCB55kWrpmR1BL8Wy_Ia-0" />
        <mxCell id="fCB55kWrpmR1BL8Wy_Ia-1" parent="fCB55kWrpmR1BL8Wy_Ia-0" />
        <mxCell id="fCB55kWrpmR1BL8Wy_Ia-2" value="&lt;b&gt;MongoDB&lt;/b&gt;&lt;div&gt;shard1-secondary2&lt;/div&gt;" style="shape=cylinder3;whiteSpace=wrap;html=1;boundedLbl=1;backgroundOutline=1;size=15;" parent="fCB55kWrpmR1BL8Wy_Ia-1" vertex="1">
          <mxGeometry x="120" y="670" width="90" height="90" as="geometry" />
        </mxCell>
        <mxCell id="fCB55kWrpmR1BL8Wy_Ia-3" value="&lt;b&gt;MongoDB&lt;/b&gt;&lt;div&gt;shard1-secondary1&lt;/div&gt;" style="shape=cylinder3;whiteSpace=wrap;html=1;boundedLbl=1;backgroundOutline=1;size=15;" parent="fCB55kWrpmR1BL8Wy_Ia-1" vertex="1">
          <mxGeometry x="120" y="600" width="90" height="90" as="geometry" />
        </mxCell>
        <mxCell id="fCB55kWrpmR1BL8Wy_Ia-4" value="&lt;b&gt;MongoDB&lt;/b&gt;&lt;div&gt;shard1&lt;/div&gt;" style="shape=cylinder3;whiteSpace=wrap;html=1;boundedLbl=1;backgroundOutline=1;size=15;" parent="fCB55kWrpmR1BL8Wy_Ia-1" vertex="1">
          <mxGeometry x="120" y="540" width="90" height="80" as="geometry" />
        </mxCell>
        <mxCell id="nXGA0LwfXnw_DRG7qtxr-5" style="edgeStyle=orthogonalEdgeStyle;rounded=0;orthogonalLoop=1;jettySize=auto;html=1;exitX=0.5;exitY=1;exitDx=0;exitDy=0;entryX=0.75;entryY=1;entryDx=0;entryDy=0;" edge="1" parent="fCB55kWrpmR1BL8Wy_Ia-1" source="fCB55kWrpmR1BL8Wy_Ia-6" target="nXGA0LwfXnw_DRG7qtxr-3">
          <mxGeometry relative="1" as="geometry">
            <Array as="points">
              <mxPoint x="180" y="240" />
              <mxPoint x="650" y="240" />
            </Array>
          </mxGeometry>
        </mxCell>
        <mxCell id="nXGA0LwfXnw_DRG7qtxr-6" value="Регистрация сервиса" style="edgeLabel;html=1;align=center;verticalAlign=middle;resizable=0;points=[];" connectable="0" vertex="1" parent="nXGA0LwfXnw_DRG7qtxr-5">
          <mxGeometry x="0.2393" relative="1" as="geometry">
            <mxPoint as="offset" />
          </mxGeometry>
        </mxCell>
        <mxCell id="nXGA0LwfXnw_DRG7qtxr-8" style="edgeStyle=orthogonalEdgeStyle;rounded=0;orthogonalLoop=1;jettySize=auto;html=1;exitX=0.75;exitY=1;exitDx=0;exitDy=0;entryX=0.5;entryY=0;entryDx=0;entryDy=0;" edge="1" parent="fCB55kWrpmR1BL8Wy_Ia-1" source="fCB55kWrpmR1BL8Wy_Ia-6" target="fCB55kWrpmR1BL8Wy_Ia-16">
          <mxGeometry relative="1" as="geometry" />
        </mxCell>
        <mxCell id="fCB55kWrpmR1BL8Wy_Ia-6" value="&lt;b&gt;Приложение&lt;/b&gt;&lt;br&gt;pymongo-api instance 1" style="rounded=1;whiteSpace=wrap;html=1;" parent="fCB55kWrpmR1BL8Wy_Ia-1" vertex="1">
          <mxGeometry x="120" y="160" width="120" height="60" as="geometry" />
        </mxCell>
        <mxCell id="fCB55kWrpmR1BL8Wy_Ia-7" value="&lt;div&gt;&lt;b&gt;MongoDB роутер&lt;/b&gt;&lt;/div&gt;mongos_router" style="rounded=1;whiteSpace=wrap;html=1;" parent="fCB55kWrpmR1BL8Wy_Ia-1" vertex="1">
          <mxGeometry x="230" y="400" width="120" height="60" as="geometry" />
        </mxCell>
        <mxCell id="fCB55kWrpmR1BL8Wy_Ia-8" style="edgeStyle=orthogonalEdgeStyle;rounded=0;orthogonalLoop=1;jettySize=auto;html=1;exitX=0;exitY=0.5;exitDx=0;exitDy=0;" parent="fCB55kWrpmR1BL8Wy_Ia-1" source="fCB55kWrpmR1BL8Wy_Ia-9" target="fCB55kWrpmR1BL8Wy_Ia-7" edge="1">
          <mxGeometry relative="1" as="geometry" />
        </mxCell>
        <mxCell id="fCB55kWrpmR1BL8Wy_Ia-9" value="&lt;div&gt;&lt;b&gt;&amp;nbsp;Сервер конфигурации&lt;/b&gt;&lt;/div&gt;configSrv" style="rounded=1;whiteSpace=wrap;html=1;" parent="fCB55kWrpmR1BL8Wy_Ia-1" vertex="1">
          <mxGeometry x="480" y="400" width="120" height="60" as="geometry" />
        </mxCell>
        <mxCell id="fCB55kWrpmR1BL8Wy_Ia-10" style="edgeStyle=orthogonalEdgeStyle;rounded=0;orthogonalLoop=1;jettySize=auto;html=1;exitX=0.5;exitY=1;exitDx=0;exitDy=0;entryX=0.5;entryY=0;entryDx=0;entryDy=0;entryPerimeter=0;" parent="fCB55kWrpmR1BL8Wy_Ia-1" source="fCB55kWrpmR1BL8Wy_Ia-7" target="fCB55kWrpmR1BL8Wy_Ia-4" edge="1">
          <mxGeometry relative="1" as="geometry" />
        </mxCell>
        <mxCell id="fCB55kWrpmR1BL8Wy_Ia-11" style="edgeStyle=orthogonalEdgeStyle;rounded=0;orthogonalLoop=1;jettySize=auto;html=1;entryX=0.5;entryY=0;entryDx=0;entryDy=0;entryPerimeter=0;" parent="fCB55kWrpmR1BL8Wy_Ia-1" source="fCB55kWrpmR1BL8Wy_Ia-7" edge="1">
          <mxGeometry relative="1" as="geometry">
            <Array as="points">
              <mxPoint x="290" y="500" />
              <mxPoint x="400" y="500" />
            </Array>
            <mxPoint x="400" y="540" as="targetPoint" />
          </mxGeometry>
        </mxCell>
        <mxCell id="fCB55kWrpmR1BL8Wy_Ia-12" value="&lt;b&gt;MongoDB&lt;/b&gt;&lt;div&gt;shard2-secondary2&lt;/div&gt;" style="shape=cylinder3;whiteSpace=wrap;html=1;boundedLbl=1;backgroundOutline=1;size=15;" parent="fCB55kWrpmR1BL8Wy_Ia-1" vertex="1">
          <mxGeometry x="360" y="670" width="90" height="90" as="geometry" />
        </mxCell>
        <mxCell id="fCB55kWrpmR1BL8Wy_Ia-13" value="&lt;b&gt;MongoDB&lt;/b&gt;&lt;div&gt;shard2-secondary1&lt;/div&gt;" style="shape=cylinder3;whiteSpace=wrap;html=1;boundedLbl=1;backgroundOutline=1;size=15;" parent="fCB55kWrpmR1BL8Wy_Ia-1" vertex="1">
          <mxGeometry x="360" y="600" width="90" height="90" as="geometry" />
        </mxCell>
        <mxCell id="fCB55kWrpmR1BL8Wy_Ia-14" value="&lt;b&gt;MongoDB&lt;/b&gt;&lt;div&gt;shard2&lt;/div&gt;" style="shape=cylinder3;whiteSpace=wrap;html=1;boundedLbl=1;backgroundOutline=1;size=15;" parent="fCB55kWrpmR1BL8Wy_Ia-1" vertex="1">
          <mxGeometry x="360" y="540" width="90" height="80" as="geometry" />
        </mxCell>
        <mxCell id="fCB55kWrpmR1BL8Wy_Ia-15" style="edgeStyle=orthogonalEdgeStyle;rounded=0;orthogonalLoop=1;jettySize=auto;html=1;exitX=0.5;exitY=1;exitDx=0;exitDy=0;entryX=0.5;entryY=0;entryDx=0;entryDy=0;" parent="fCB55kWrpmR1BL8Wy_Ia-1" source="fCB55kWrpmR1BL8Wy_Ia-16" target="fCB55kWrpmR1BL8Wy_Ia-7" edge="1">
          <mxGeometry relative="1" as="geometry" />
        </mxCell>
        <mxCell id="fCB55kWrpmR1BL8Wy_Ia-16" value="&lt;div&gt;&lt;span style=&quot;background-color: initial;&quot;&gt;&lt;b&gt;Reddis кэш&lt;/b&gt;&lt;/span&gt;&lt;/div&gt;&lt;div&gt;reddis&lt;/div&gt;" style="rounded=1;whiteSpace=wrap;html=1;" parent="fCB55kWrpmR1BL8Wy_Ia-1" vertex="1">
          <mxGeometry x="230" y="300" width="120" height="60" as="geometry" />
        </mxCell>
        <mxCell id="nXGA0LwfXnw_DRG7qtxr-4" style="edgeStyle=orthogonalEdgeStyle;rounded=0;orthogonalLoop=1;jettySize=auto;html=1;exitX=1;exitY=0.5;exitDx=0;exitDy=0;entryX=0.25;entryY=1;entryDx=0;entryDy=0;" edge="1" parent="fCB55kWrpmR1BL8Wy_Ia-1" source="nXGA0LwfXnw_DRG7qtxr-0" target="nXGA0LwfXnw_DRG7qtxr-3">
          <mxGeometry relative="1" as="geometry" />
        </mxCell>
        <mxCell id="nXGA0LwfXnw_DRG7qtxr-7" value="Регистрация сервиса" style="edgeLabel;html=1;align=center;verticalAlign=middle;resizable=0;points=[];" connectable="0" vertex="1" parent="nXGA0LwfXnw_DRG7qtxr-4">
          <mxGeometry x="-0.2718" y="1" relative="1" as="geometry">
            <mxPoint x="-6" y="1" as="offset" />
          </mxGeometry>
        </mxCell>
        <mxCell id="nXGA0LwfXnw_DRG7qtxr-9" style="edgeStyle=orthogonalEdgeStyle;rounded=0;orthogonalLoop=1;jettySize=auto;html=1;exitX=0.5;exitY=1;exitDx=0;exitDy=0;entryX=0.5;entryY=0;entryDx=0;entryDy=0;" edge="1" parent="fCB55kWrpmR1BL8Wy_Ia-1" source="nXGA0LwfXnw_DRG7qtxr-0" target="fCB55kWrpmR1BL8Wy_Ia-16">
          <mxGeometry relative="1" as="geometry" />
        </mxCell>
        <mxCell id="nXGA0LwfXnw_DRG7qtxr-0" value="&lt;b&gt;Приложение&lt;/b&gt;&lt;br&gt;pymongo-api instance 2" style="rounded=1;whiteSpace=wrap;html=1;" vertex="1" parent="fCB55kWrpmR1BL8Wy_Ia-1">
          <mxGeometry x="345" y="160" width="120" height="60" as="geometry" />
        </mxCell>
        <mxCell id="nXGA0LwfXnw_DRG7qtxr-10" style="edgeStyle=orthogonalEdgeStyle;rounded=0;orthogonalLoop=1;jettySize=auto;html=1;exitX=1;exitY=0.5;exitDx=0;exitDy=0;entryX=0;entryY=0.5;entryDx=0;entryDy=0;" edge="1" parent="fCB55kWrpmR1BL8Wy_Ia-1" source="nXGA0LwfXnw_DRG7qtxr-1" target="nXGA0LwfXnw_DRG7qtxr-3">
          <mxGeometry relative="1" as="geometry" />
        </mxCell>
        <mxCell id="nXGA0LwfXnw_DRG7qtxr-11" value="Получение данных о сервисах" style="edgeLabel;html=1;align=center;verticalAlign=middle;resizable=0;points=[];" connectable="0" vertex="1" parent="nXGA0LwfXnw_DRG7qtxr-10">
          <mxGeometry x="0.0286" y="3" relative="1" as="geometry">
            <mxPoint as="offset" />
          </mxGeometry>
        </mxCell>
        <mxCell id="nXGA0LwfXnw_DRG7qtxr-14" style="edgeStyle=orthogonalEdgeStyle;rounded=0;orthogonalLoop=1;jettySize=auto;html=1;exitX=0.5;exitY=1;exitDx=0;exitDy=0;entryX=0.5;entryY=0;entryDx=0;entryDy=0;" edge="1" parent="fCB55kWrpmR1BL8Wy_Ia-1" source="nXGA0LwfXnw_DRG7qtxr-1" target="fCB55kWrpmR1BL8Wy_Ia-6">
          <mxGeometry relative="1" as="geometry" />
        </mxCell>
        <mxCell id="nXGA0LwfXnw_DRG7qtxr-15" style="edgeStyle=orthogonalEdgeStyle;rounded=0;orthogonalLoop=1;jettySize=auto;html=1;exitX=0.5;exitY=1;exitDx=0;exitDy=0;entryX=0.5;entryY=0;entryDx=0;entryDy=0;" edge="1" parent="fCB55kWrpmR1BL8Wy_Ia-1" source="nXGA0LwfXnw_DRG7qtxr-1" target="nXGA0LwfXnw_DRG7qtxr-0">
          <mxGeometry relative="1" as="geometry" />
        </mxCell>
        <mxCell id="nXGA0LwfXnw_DRG7qtxr-17" value="Балансировка нагрузки" style="edgeLabel;html=1;align=center;verticalAlign=middle;resizable=0;points=[];" connectable="0" vertex="1" parent="nXGA0LwfXnw_DRG7qtxr-15">
          <mxGeometry x="-0.871" y="1" relative="1" as="geometry">
            <mxPoint as="offset" />
          </mxGeometry>
        </mxCell>
        <mxCell id="nXGA0LwfXnw_DRG7qtxr-1" value="Api Gateway" style="rounded=1;whiteSpace=wrap;html=1;" vertex="1" parent="fCB55kWrpmR1BL8Wy_Ia-1">
          <mxGeometry x="230" y="60" width="120" height="60" as="geometry" />
        </mxCell>
        <mxCell id="nXGA0LwfXnw_DRG7qtxr-3" value="Service Discovery&lt;div&gt;(Consul)&lt;/div&gt;" style="rounded=1;whiteSpace=wrap;html=1;" vertex="1" parent="fCB55kWrpmR1BL8Wy_Ia-1">
          <mxGeometry x="560" y="60" width="120" height="60" as="geometry" />
        </mxCell>
        <mxCell id="nXGA0LwfXnw_DRG7qtxr-12" value="&lt;font style=&quot;font-size: 11px;&quot;&gt;Consul agent&lt;/font&gt;" style="rounded=1;whiteSpace=wrap;html=1;" vertex="1" parent="fCB55kWrpmR1BL8Wy_Ia-1">
          <mxGeometry x="190" y="200" width="70" height="20" as="geometry" />
        </mxCell>
        <mxCell id="nXGA0LwfXnw_DRG7qtxr-13" value="&lt;font style=&quot;font-size: 11px;&quot;&gt;Consul agent&lt;/font&gt;" style="rounded=1;whiteSpace=wrap;html=1;" vertex="1" parent="fCB55kWrpmR1BL8Wy_Ia-1">
          <mxGeometry x="414" y="200" width="70" height="20" as="geometry" />
        </mxCell>
      </root>
    </mxGraphModel>
  </diagram>
  <diagram name="ApiGateway + CDN" id="g7-975U0W7yKQLQ2XyAy">
    <mxGraphModel grid="1" page="1" gridSize="10" guides="1" tooltips="1" connect="1" arrows="1" fold="1" pageScale="1" pageWidth="827" pageHeight="1169" math="0" shadow="0">
      <root>
        <mxCell id="HnbHZiz22bez4szH9zwb-0" />
        <mxCell id="HnbHZiz22bez4szH9zwb-1" parent="HnbHZiz22bez4szH9zwb-0" />
        <mxCell id="HnbHZiz22bez4szH9zwb-2" value="&lt;b&gt;MongoDB&lt;/b&gt;&lt;div&gt;shard1-secondary2&lt;/div&gt;" style="shape=cylinder3;whiteSpace=wrap;html=1;boundedLbl=1;backgroundOutline=1;size=15;" parent="HnbHZiz22bez4szH9zwb-1" vertex="1">
          <mxGeometry x="90" y="660" width="90" height="90" as="geometry" />
        </mxCell>
        <mxCell id="HnbHZiz22bez4szH9zwb-3" value="&lt;b&gt;MongoDB&lt;/b&gt;&lt;div&gt;shard1-secondary1&lt;/div&gt;" style="shape=cylinder3;whiteSpace=wrap;html=1;boundedLbl=1;backgroundOutline=1;size=15;" parent="HnbHZiz22bez4szH9zwb-1" vertex="1">
          <mxGeometry x="90" y="590" width="90" height="90" as="geometry" />
        </mxCell>
        <mxCell id="HnbHZiz22bez4szH9zwb-4" value="&lt;b&gt;MongoDB&lt;/b&gt;&lt;div&gt;shard1&lt;/div&gt;" style="shape=cylinder3;whiteSpace=wrap;html=1;boundedLbl=1;backgroundOutline=1;size=15;" parent="HnbHZiz22bez4szH9zwb-1" vertex="1">
          <mxGeometry x="90" y="530" width="90" height="80" as="geometry" />
        </mxCell>
        <mxCell id="HnbHZiz22bez4szH9zwb-5" style="edgeStyle=orthogonalEdgeStyle;rounded=0;orthogonalLoop=1;jettySize=auto;html=1;exitX=0.5;exitY=1;exitDx=0;exitDy=0;entryX=0.75;entryY=1;entryDx=0;entryDy=0;" parent="HnbHZiz22bez4szH9zwb-1" source="HnbHZiz22bez4szH9zwb-8" target="HnbHZiz22bez4szH9zwb-29" edge="1">
          <mxGeometry relative="1" as="geometry">
            <Array as="points">
              <mxPoint x="150" y="230" />
              <mxPoint x="620" y="230" />
            </Array>
          </mxGeometry>
        </mxCell>
        <mxCell id="HnbHZiz22bez4szH9zwb-6" value="Регистрация сервиса" style="edgeLabel;html=1;align=center;verticalAlign=middle;resizable=0;points=[];" parent="HnbHZiz22bez4szH9zwb-5" connectable="0" vertex="1">
          <mxGeometry x="0.2393" relative="1" as="geometry">
            <mxPoint as="offset" />
          </mxGeometry>
        </mxCell>
        <mxCell id="HnbHZiz22bez4szH9zwb-7" style="edgeStyle=orthogonalEdgeStyle;rounded=0;orthogonalLoop=1;jettySize=auto;html=1;exitX=0.75;exitY=1;exitDx=0;exitDy=0;entryX=0.5;entryY=0;entryDx=0;entryDy=0;" parent="HnbHZiz22bez4szH9zwb-1" source="HnbHZiz22bez4szH9zwb-8" target="HnbHZiz22bez4szH9zwb-18" edge="1">
          <mxGeometry relative="1" as="geometry" />
        </mxCell>
        <mxCell id="HnbHZiz22bez4szH9zwb-8" value="&lt;b&gt;Приложение&lt;/b&gt;&lt;br&gt;pymongo-api instance 1" style="rounded=1;whiteSpace=wrap;html=1;" parent="HnbHZiz22bez4szH9zwb-1" vertex="1">
          <mxGeometry x="90" y="150" width="120" height="60" as="geometry" />
        </mxCell>
        <mxCell id="HnbHZiz22bez4szH9zwb-9" value="&lt;div&gt;&lt;b&gt;MongoDB роутер&lt;/b&gt;&lt;/div&gt;mongos_router" style="rounded=1;whiteSpace=wrap;html=1;" parent="HnbHZiz22bez4szH9zwb-1" vertex="1">
          <mxGeometry x="200" y="390" width="120" height="60" as="geometry" />
        </mxCell>
        <mxCell id="HnbHZiz22bez4szH9zwb-10" style="edgeStyle=orthogonalEdgeStyle;rounded=0;orthogonalLoop=1;jettySize=auto;html=1;exitX=0;exitY=0.5;exitDx=0;exitDy=0;" parent="HnbHZiz22bez4szH9zwb-1" source="HnbHZiz22bez4szH9zwb-11" target="HnbHZiz22bez4szH9zwb-9" edge="1">
          <mxGeometry relative="1" as="geometry" />
        </mxCell>
        <mxCell id="HnbHZiz22bez4szH9zwb-11" value="&lt;div&gt;&lt;b&gt;&amp;nbsp;Сервер конфигурации&lt;/b&gt;&lt;/div&gt;configSrv" style="rounded=1;whiteSpace=wrap;html=1;" parent="HnbHZiz22bez4szH9zwb-1" vertex="1">
          <mxGeometry x="450" y="390" width="120" height="60" as="geometry" />
        </mxCell>
        <mxCell id="HnbHZiz22bez4szH9zwb-12" style="edgeStyle=orthogonalEdgeStyle;rounded=0;orthogonalLoop=1;jettySize=auto;html=1;exitX=0.5;exitY=1;exitDx=0;exitDy=0;entryX=0.5;entryY=0;entryDx=0;entryDy=0;entryPerimeter=0;" parent="HnbHZiz22bez4szH9zwb-1" source="HnbHZiz22bez4szH9zwb-9" target="HnbHZiz22bez4szH9zwb-4" edge="1">
          <mxGeometry relative="1" as="geometry" />
        </mxCell>
        <mxCell id="HnbHZiz22bez4szH9zwb-13" style="edgeStyle=orthogonalEdgeStyle;rounded=0;orthogonalLoop=1;jettySize=auto;html=1;entryX=0.5;entryY=0;entryDx=0;entryDy=0;entryPerimeter=0;" parent="HnbHZiz22bez4szH9zwb-1" source="HnbHZiz22bez4szH9zwb-9" edge="1">
          <mxGeometry relative="1" as="geometry">
            <Array as="points">
              <mxPoint x="260" y="490" />
              <mxPoint x="370" y="490" />
            </Array>
            <mxPoint x="370" y="530" as="targetPoint" />
          </mxGeometry>
        </mxCell>
        <mxCell id="HnbHZiz22bez4szH9zwb-14" value="&lt;b&gt;MongoDB&lt;/b&gt;&lt;div&gt;shard2-secondary2&lt;/div&gt;" style="shape=cylinder3;whiteSpace=wrap;html=1;boundedLbl=1;backgroundOutline=1;size=15;" parent="HnbHZiz22bez4szH9zwb-1" vertex="1">
          <mxGeometry x="330" y="660" width="90" height="90" as="geometry" />
        </mxCell>
        <mxCell id="HnbHZiz22bez4szH9zwb-15" value="&lt;b&gt;MongoDB&lt;/b&gt;&lt;div&gt;shard2-secondary1&lt;/div&gt;" style="shape=cylinder3;whiteSpace=wrap;html=1;boundedLbl=1;backgroundOutline=1;size=15;" parent="HnbHZiz22bez4szH9zwb-1" vertex="1">
          <mxGeometry x="330" y="590" width="90" height="90" as="geometry" />
        </mxCell>
        <mxCell id="HnbHZiz22bez4szH9zwb-16" value="&lt;b&gt;MongoDB&lt;/b&gt;&lt;div&gt;shard2&lt;/div&gt;" style="shape=cylinder3;whiteSpace=wrap;html=1;boundedLbl=1;backgroundOutline=1;size=15;" parent="HnbHZiz22bez4szH9zwb-1" vertex="1">
          <mxGeometry x="330" y="530" width="90" height="80" as="geometry" />
        </mxCell>
        <mxCell id="HnbHZiz22bez4szH9zwb-17" style="edgeStyle=orthogonalEdgeStyle;rounded=0;orthogonalLoop=1;jettySize=auto;html=1;exitX=0.5;exitY=1;exitDx=0;exitDy=0;entryX=0.5;entryY=0;entryDx=0;entryDy=0;" parent="HnbHZiz22bez4szH9zwb-1" source="HnbHZiz22bez4szH9zwb-18" target="HnbHZiz22bez4szH9zwb-9" edge="1">
          <mxGeometry relative="1" as="geometry" />
        </mxCell>
        <mxCell id="HnbHZiz22bez4szH9zwb-18" value="&lt;div&gt;&lt;span style=&quot;background-color: initial;&quot;&gt;&lt;b&gt;Reddis кэш&lt;/b&gt;&lt;/span&gt;&lt;/div&gt;&lt;div&gt;reddis&lt;/div&gt;" style="rounded=1;whiteSpace=wrap;html=1;" parent="HnbHZiz22bez4szH9zwb-1" vertex="1">
          <mxGeometry x="200" y="290" width="120" height="60" as="geometry" />
        </mxCell>
        <mxCell id="HnbHZiz22bez4szH9zwb-19" style="edgeStyle=orthogonalEdgeStyle;rounded=0;orthogonalLoop=1;jettySize=auto;html=1;exitX=1;exitY=0.5;exitDx=0;exitDy=0;entryX=0.25;entryY=1;entryDx=0;entryDy=0;" parent="HnbHZiz22bez4szH9zwb-1" source="HnbHZiz22bez4szH9zwb-22" target="HnbHZiz22bez4szH9zwb-29" edge="1">
          <mxGeometry relative="1" as="geometry" />
        </mxCell>
        <mxCell id="HnbHZiz22bez4szH9zwb-20" value="Регистрация сервиса" style="edgeLabel;html=1;align=center;verticalAlign=middle;resizable=0;points=[];" parent="HnbHZiz22bez4szH9zwb-19" connectable="0" vertex="1">
          <mxGeometry x="-0.2718" y="1" relative="1" as="geometry">
            <mxPoint x="-6" y="1" as="offset" />
          </mxGeometry>
        </mxCell>
        <mxCell id="HnbHZiz22bez4szH9zwb-21" style="edgeStyle=orthogonalEdgeStyle;rounded=0;orthogonalLoop=1;jettySize=auto;html=1;exitX=0.5;exitY=1;exitDx=0;exitDy=0;entryX=0.5;entryY=0;entryDx=0;entryDy=0;" parent="HnbHZiz22bez4szH9zwb-1" source="HnbHZiz22bez4szH9zwb-22" target="HnbHZiz22bez4szH9zwb-18" edge="1">
          <mxGeometry relative="1" as="geometry" />
        </mxCell>
        <mxCell id="HnbHZiz22bez4szH9zwb-22" value="&lt;b&gt;Приложение&lt;/b&gt;&lt;br&gt;pymongo-api instance 2" style="rounded=1;whiteSpace=wrap;html=1;" parent="HnbHZiz22bez4szH9zwb-1" vertex="1">
          <mxGeometry x="315" y="150" width="120" height="60" as="geometry" />
        </mxCell>
        <mxCell id="HnbHZiz22bez4szH9zwb-23" style="edgeStyle=orthogonalEdgeStyle;rounded=0;orthogonalLoop=1;jettySize=auto;html=1;exitX=1;exitY=0.5;exitDx=0;exitDy=0;entryX=0;entryY=0.5;entryDx=0;entryDy=0;" parent="HnbHZiz22bez4szH9zwb-1" source="HnbHZiz22bez4szH9zwb-28" target="HnbHZiz22bez4szH9zwb-29" edge="1">
          <mxGeometry relative="1" as="geometry" />
        </mxCell>
        <mxCell id="HnbHZiz22bez4szH9zwb-24" value="Получение данных о сервисах" style="edgeLabel;html=1;align=center;verticalAlign=middle;resizable=0;points=[];" parent="HnbHZiz22bez4szH9zwb-23" connectable="0" vertex="1">
          <mxGeometry x="0.0286" y="3" relative="1" as="geometry">
            <mxPoint as="offset" />
          </mxGeometry>
        </mxCell>
        <mxCell id="HnbHZiz22bez4szH9zwb-25" style="edgeStyle=orthogonalEdgeStyle;rounded=0;orthogonalLoop=1;jettySize=auto;html=1;exitX=0.5;exitY=1;exitDx=0;exitDy=0;entryX=0.5;entryY=0;entryDx=0;entryDy=0;" parent="HnbHZiz22bez4szH9zwb-1" source="HnbHZiz22bez4szH9zwb-28" target="HnbHZiz22bez4szH9zwb-8" edge="1">
          <mxGeometry relative="1" as="geometry" />
        </mxCell>
        <mxCell id="HnbHZiz22bez4szH9zwb-26" style="edgeStyle=orthogonalEdgeStyle;rounded=0;orthogonalLoop=1;jettySize=auto;html=1;exitX=0.5;exitY=1;exitDx=0;exitDy=0;entryX=0.5;entryY=0;entryDx=0;entryDy=0;" parent="HnbHZiz22bez4szH9zwb-1" source="HnbHZiz22bez4szH9zwb-28" target="HnbHZiz22bez4szH9zwb-22" edge="1">
          <mxGeometry relative="1" as="geometry" />
        </mxCell>
        <mxCell id="HnbHZiz22bez4szH9zwb-27" value="Балансировка нагрузки" style="edgeLabel;html=1;align=center;verticalAlign=middle;resizable=0;points=[];" parent="HnbHZiz22bez4szH9zwb-26" connectable="0" vertex="1">
          <mxGeometry x="-0.871" y="1" relative="1" as="geometry">
            <mxPoint as="offset" />
          </mxGeometry>
        </mxCell>
        <mxCell id="HnbHZiz22bez4szH9zwb-28" value="Api Gateway" style="rounded=1;whiteSpace=wrap;html=1;" parent="HnbHZiz22bez4szH9zwb-1" vertex="1">
          <mxGeometry x="200" y="50" width="120" height="60" as="geometry" />
        </mxCell>
        <mxCell id="HnbHZiz22bez4szH9zwb-29" value="Service Discovery&lt;div&gt;(Consul)&lt;/div&gt;" style="rounded=1;whiteSpace=wrap;html=1;" parent="HnbHZiz22bez4szH9zwb-1" vertex="1">
          <mxGeometry x="530" y="50" width="120" height="60" as="geometry" />
        </mxCell>
        <mxCell id="HnbHZiz22bez4szH9zwb-30" value="&lt;font style=&quot;font-size: 11px;&quot;&gt;Consul agent&lt;/font&gt;" style="rounded=1;whiteSpace=wrap;html=1;" parent="HnbHZiz22bez4szH9zwb-1" vertex="1">
          <mxGeometry x="160" y="190" width="70" height="20" as="geometry" />
        </mxCell>
        <mxCell id="HnbHZiz22bez4szH9zwb-31" value="&lt;font style=&quot;font-size: 11px;&quot;&gt;Consul agent&lt;/font&gt;" style="rounded=1;whiteSpace=wrap;html=1;" parent="HnbHZiz22bez4szH9zwb-1" vertex="1">
          <mxGeometry x="384" y="190" width="70" height="20" as="geometry" />
        </mxCell>
        <mxCell id="qDEy9erc0eWH5eocC0QP-0" value="CDN" style="ellipse;shape=cloud;whiteSpace=wrap;html=1;" vertex="1" parent="HnbHZiz22bez4szH9zwb-1">
          <mxGeometry x="600" y="300" width="120" height="80" as="geometry" />
        </mxCell>
        <mxCell id="qDEy9erc0eWH5eocC0QP-3" style="edgeStyle=orthogonalEdgeStyle;rounded=0;orthogonalLoop=1;jettySize=auto;html=1;exitX=0.75;exitY=1;exitDx=0;exitDy=0;entryX=0.4;entryY=0.1;entryDx=0;entryDy=0;entryPerimeter=0;startArrow=classic;startFill=1;" edge="1" parent="HnbHZiz22bez4szH9zwb-1" source="HnbHZiz22bez4szH9zwb-28" target="qDEy9erc0eWH5eocC0QP-0">
          <mxGeometry relative="1" as="geometry">
            <Array as="points">
              <mxPoint x="290" y="280" />
              <mxPoint x="648" y="280" />
            </Array>
          </mxGeometry>
        </mxCell>
        <mxCell id="qDEy9erc0eWH5eocC0QP-4" value="Text" style="edgeLabel;html=1;align=center;verticalAlign=middle;resizable=0;points=[];" connectable="0" vertex="1" parent="qDEy9erc0eWH5eocC0QP-3">
          <mxGeometry x="0.2482" y="-2" relative="1" as="geometry">
            <mxPoint as="offset" />
          </mxGeometry>
        </mxCell>
        <mxCell id="qDEy9erc0eWH5eocC0QP-5" value="&amp;nbsp;Запрос/выдача статики" style="edgeLabel;html=1;align=center;verticalAlign=middle;resizable=0;points=[];" connectable="0" vertex="1" parent="qDEy9erc0eWH5eocC0QP-3">
          <mxGeometry x="0.2518" y="1" relative="1" as="geometry">
            <mxPoint as="offset" />
          </mxGeometry>
        </mxCell>
      </root>
    </mxGraphModel>
  </diagram>
</mxfile>
